<?xml version="1.0" encoding="UTF-8" standalone="no"?>
<!DOCTYPE svg PUBLIC "-//W3C//DTD SVG 1.1//EN" "http://www.w3.org/Graphics/SVG/1.1/DTD/svg11.dtd">
<svg viewBox="0 0 512 427" xmlns="http://www.w3.org/2000/svg" style="fill-rule:evenodd;clip-rule:evenodd;stroke-linejoin:round;stroke-miterlimit:2">
  <circle cx="464" cy="416" r="48" style="fill:white" transform="translate(-64 -96) scale(1.125)"/>
  <path style="fill:white" d="M411 0h93.999v284h-94zM135.917 426H0V0h96.06c41.139 0 75.225-.114 104.066 2.58 69.442 6.486 114.829 39.935 114.829 101.387 0 49.112-22.143 78.617-76.824 92.293C274.509 198.73 334 220.546 334 304.195c0 79.134-54.043 106.776-102.083 116.153-28.46 5.555-95.786 5.652-96 5.652zm-28.139-169.985c51.846 0 58.532.59 64.474 1.147 5.941.558 27.894 2.405 38.686 11.96 10.793 9.554 12.91 24.606 12.91 34.867 0 19.625-5.852 33.42-31.787 40.623-13.104 3.639-27.942 4.129-33.298 4.338-3.972.154-25.58.103-50.985.082v-93.017zm0-161.577c28.015 0 48.531-.414 65.44 3.275 13.206 3.47 32.341 7.166 32.341 41.52 0 31.17-23.919 35.749-37.559 38.345-14.489 2.758-60.222 2.458-60.222 2.458V94.438z"/>
</svg>
